<?xml version="1.0" standalone="no"?>
<!DOCTYPE svg PUBLIC "-//W3C//DTD SVG 1.1//EN" "http://www.w3.org/Graphics/SVG/1.1/DTD/svg11.dtd">
<!--Generator: Xara Designer (www.xara.com), SVG filter version: 5.0.0.2-->
<svg stroke-width="0.501" stroke-linejoin="bevel" fill-rule="evenodd" xmlns:xlink="http://www.w3.org/1999/xlink" xmlns="http://www.w3.org/2000/svg" version="1.1" overflow="visible" width="65.25pt" height="66.75pt" viewBox="0 0 65.25 66.75">
 <defs>

  <linearGradient id="LinearGradient" gradientUnits="userSpaceOnUse" x1="0" y1="0" x2="0.568" y2="-59.951" gradientTransform="translate(32.633 60.701)">
   <stop offset="0" stop-color="#7fff81"/>
   <stop offset="1" stop-color="#007f7f"/>
  </linearGradient>
 </defs>
 <g id="Document" fill="none" stroke="black" font-family="Times New Roman" font-size="16" transform="scale(1 -1)">
  <g id="Spread" transform="translate(0 -66.75)">
   <g id="MouseOff">
    <g id="Group" stroke-linejoin="miter">
     <path d="M 18.925,63.592 C 35.399,71.362 55.074,64.298 62.844,47.825 C 70.614,31.351 63.55,11.676 47.077,3.906 C 30.603,-3.864 10.928,3.2 3.158,19.673 C -4.612,36.147 2.452,55.822 18.925,63.592 Z" stroke="none" stroke-opacity="0.200000" fill="#7fff81" stroke-width="0.939" stroke-linecap="round" marker-start="none" marker-end="none" stroke-miterlimit="79.8403193612775" fill-opacity="0.200000"/>
     <path d="M 21.504,58.124 C 34.959,64.47 51.03,58.701 57.376,45.246 C 63.722,31.791 57.953,15.72 44.498,9.374 C 31.043,3.028 14.972,8.797 8.626,22.252 C 2.28,35.707 8.049,51.778 21.504,58.124 Z" stroke="#00ff03" stroke-width="0.767" stroke-linecap="round" marker-start="none" marker-end="none" stroke-miterlimit="79.8403193612775" fill="url(#LinearGradient)"/>
     <path d="M 22.584,27.683 C 23.785,29.253 25.241,30.272 27.325,30.851 L 29.278,24.013 C 29.278,23.382 29.795,22.866 30.424,22.866 C 31.053,22.866 31.57,23.382 31.57,24.013 L 31.57,29.453 C 31.57,30.243 32.211,30.885 33.002,30.885 C 33.793,30.885 34.433,30.243 34.433,29.453 L 34.433,24.013 C 34.433,23.382 34.949,22.866 35.578,22.866 C 36.208,22.866 36.725,23.382 36.725,24.013 L 38.677,30.851 C 40.762,30.267 42.218,29.253 43.42,27.683 C 43.894,27.065 44.154,25.822 44.169,25.158 C 44.165,24.986 44.169,24.785 44.169,24.585 L 44.169,23.441 L 44.169,22.294 C 44.169,21.028 43.145,20.003 41.879,20.003 L 24.123,20.003 C 22.858,20.003 21.833,21.028 21.833,22.294 L 21.833,23.441 L 21.833,24.585 C 21.833,24.785 21.838,24.986 21.833,25.158 C 21.85,25.822 22.109,27.065 22.584,27.683 Z M 39.016,41.435 C 39.016,38.091 36.93,33.176 33.002,33.176 C 29.141,33.176 26.987,38.091 26.987,41.435 C 26.987,44.779 29.679,47.495 33.002,47.495 C 36.324,47.495 39.016,44.779 39.016,41.435 Z" stroke="none" fill="#ffffff" stroke-width="0.063" marker-start="none" marker-end="none" stroke-miterlimit="79.8403193612775"/>
    </g>
   </g>
  </g>
 </g>
</svg>
