<?xml version="1.0" standalone="no"?>
<!DOCTYPE svg PUBLIC "-//W3C//DTD SVG 1.1//EN" "http://www.w3.org/Graphics/SVG/1.1/DTD/svg11.dtd">
<svg stroke-width="0.501" stroke-linejoin="bevel" fill-rule="evenodd" xmlns:xlink="http://www.w3.org/1999/xlink" xmlns="http://www.w3.org/2000/svg" version="1.1" overflow="visible" width="65.25pt" height="66.75pt" viewBox="0 0 65.25 66.75">
 <defs>
  <linearGradient id="LinearGradient" gradientUnits="userSpaceOnUse" x1="0" y1="0" x2="0.664" y2="-77.591" gradientTransform="translate(32.623 65.792)">
   <stop offset="0" stop-color="#7fffff"/>
   <stop offset="1" stop-color="#0003ff"/>
  </linearGradient>
 </defs>
 <g id="Document" fill="none" stroke="black" font-family="Times New Roman" font-size="16" transform="matrix(1,0,0,-1,-3.767014E-05,65.92001)" xmlns="http://www.w3.org/2000/svg">
<g id="Spread">

<g id="MouseOff">
<g id="Group" stroke-linejoin="miter">
<g id="Group_1" stroke-linecap="round" stroke="#00ffff" stroke-width="1.009" stroke-miterlimit="79.8403193612775" fill="url(#LinearGradient)">
<path d="M 4.551,49.584 L 4.551,17.167 L 32.624,0.959 L 60.699,17.167 L 60.699,49.583 L 32.625,65.792 L 4.551,49.584 Z" marker-start="none" marker-end="none" />
</g>
<path d="M 45.238,27.527 C 43.655,24.97 38.61,23.1 32.625,23.1 C 26.644,23.1 21.594,24.97 20.014,27.527 C 19.678,28.069 19.5,27.778 19.5,27.51 C 19.5,27.243 19.5,23.757 19.5,23.757 C 19.5,20.121 25.376,16.353 32.625,16.353 C 39.874,16.353 45.75,20.121 45.75,23.757 C 45.75,23.757 45.75,27.241 45.75,27.51 C 45.75,27.781 45.57,28.069 45.238,27.527 Z M 45.257,37.118 C 43.702,34.856 38.634,33.199 32.625,33.199 C 26.615,33.199 21.548,34.856 19.993,37.118 C 19.67,37.585 19.5,37.332 19.5,37.12 C 19.5,36.908 19.5,32.702 19.5,32.702 C 19.5,29.397 25.376,26.719 32.625,26.719 C 39.874,26.719 45.75,29.397 45.75,32.702 C 45.75,32.702 45.75,36.908 45.75,37.12 C 45.75,37.332 45.577,37.585 45.257,37.118 Z M 32.625,49.352 C 25.376,49.352 19.5,47.143 19.5,44.417 L 19.5,42.057 C 19.5,39.166 25.376,36.822 32.625,36.822 C 39.874,36.822 45.75,39.166 45.75,42.057 L 45.75,44.415 C 45.75,47.143 39.874,49.352 32.625,49.352 Z" stroke="none" fill="#ffffff" stroke-width="0.037" fill-rule="evenodd" marker-start="none" marker-end="none" stroke-miterlimit="79.8403193612775" />
</g>
</g>
</g>
</g>
</svg>
