<?xml version="1.0" standalone="no"?>
<!DOCTYPE svg PUBLIC "-//W3C//DTD SVG 1.1//EN" "http://www.w3.org/Graphics/SVG/1.1/DTD/svg11.dtd">
<svg stroke-width="0.501" stroke-linejoin="bevel" fill-rule="evenodd" xmlns:xlink="http://www.w3.org/1999/xlink" xmlns="http://www.w3.org/2000/svg" version="1.1" overflow="visible" width="65.25pt" height="66.75pt" viewBox="0 0 65.25 66.75">
 <defs>
  <linearGradient id="LinearGradient" gradientUnits="userSpaceOnUse" x1="0" y1="0" x2="5.727" y2="-56.029" gradientTransform="translate(32.634 60.701)">
   <stop offset="0" stop-color="#ff7f7f"/>
   <stop offset="1" stop-color="#ff00fc"/>
  </linearGradient>
 </defs>
 <g id="Document" fill="none" stroke="black" font-family="Times New Roman" font-size="16" transform="scale(1 -1)">
  <g id="Spread" transform="translate(0 -66.75)">

    <g id="Group" stroke-linejoin="miter">
     <g id="Group_1" stroke-linecap="round">
      <path d="M 18.925,63.592 C 35.399,71.362 55.075,64.298 62.844,47.825 C 70.614,31.351 63.55,11.675 47.077,3.906 C 30.603,-3.864 10.927,3.2 3.158,19.673 C -4.612,36.147 2.452,55.823 18.925,63.592 Z" stroke="none" stroke-opacity="0.200000" fill="#ff7ffe" stroke-width="0.939" marker-start="none" marker-end="none" stroke-miterlimit="79.8403193612775" fill-opacity="0.200000"/>
      <path d="M 21.504,58.124 C 34.959,64.471 51.03,58.701 57.376,45.246 C 63.723,31.791 57.953,15.72 44.498,9.374 C 31.043,3.027 14.972,8.797 8.626,22.252 C 2.279,35.707 8.049,51.778 21.504,58.124 Z" stroke="#bf0000" stroke-width="0.768" marker-start="none" marker-end="none" stroke-miterlimit="79.8403193612775" fill="url(#LinearGradient)"/>
     </g>
     <path d="M 39.683,30.469 L 47.691,30.469 C 47.752,31.024 47.778,31.587 47.778,32.171 C 47.778,34.889 47.047,37.447 45.774,39.644 C 47.088,43.145 47.047,46.118 45.281,47.895 C 43.597,49.568 39.1,49.294 34.007,47.04 C 33.631,47.068 33.25,47.081 32.866,47.081 C 25.88,47.081 20.021,42.274 18.401,35.797 C 20.588,38.603 22.898,40.639 25.976,42.12 C 25.697,41.863 24.063,40.233 23.79,39.956 C 15.663,31.835 13.105,21.228 15.859,18.471 C 17.953,16.377 21.75,16.735 26.112,18.867 C 28.141,17.83 30.435,17.256 32.866,17.256 C 39.415,17.256 44.966,21.476 46.975,27.342 L 38.91,27.342 C 37.799,25.29 35.634,23.902 33.138,23.902 C 30.648,23.902 28.477,25.296 27.365,27.342 C 26.872,28.267 26.589,29.326 26.589,30.45 L 26.589,30.476 L 39.683,30.469 L 39.683,30.469 Z M 26.602,34.4 C 26.785,37.691 29.527,40.324 32.866,40.324 C 36.207,40.324 38.949,37.695 39.132,34.4 L 26.602,34.4 L 26.602,34.4 Z M 45.204,46.233 C 46.341,45.084 46.312,42.971 45.336,40.333 C 43.674,42.877 41.251,44.878 38.394,46.022 C 41.455,47.326 43.935,47.503 45.204,46.233 L 45.204,46.233 L 45.204,46.233 Z M 17.963,18.992 C 16.513,20.442 16.947,23.489 18.819,27.158 C 19.979,23.895 22.25,21.151 25.172,19.389 C 21.935,17.92 19.287,17.672 17.963,18.992 L 17.963,18.992 Z" stroke="none" fill="#ffffff" stroke-width="0.032" fill-rule="evenodd" marker-start="none" marker-end="none" stroke-miterlimit="79.8403193612775"/>
   </g>
  </g>
 </g>
</svg>
