<?xml version="1.0" encoding="utf-8"?>
<!-- Generator: Adobe Illustrator 17.0.0, SVG Export Plug-In . SVG Version: 6.00 Build 0)  -->
<!DOCTYPE svg PUBLIC "-//W3C//DTD SVG 1.1//EN" "http://www.w3.org/Graphics/SVG/1.1/DTD/svg11.dtd">
<svg version="1.1" id="Layer1" xmlns="http://www.w3.org/2000/svg" xmlns:xlink="http://www.w3.org/1999/xlink" x="0px" y="0px"
	 width="32px" height="32px" viewBox="0 0 32 32" enable-background="new 0 0 32 32" xml:space="preserve">
<circle opacity="0.2" fill="#FF6666" cx="16.308" cy="16.308" r="14"/>
<circle opacity="0.2" fill="#FF6666" cx="16.308" cy="16.308" r="10"/>
<linearGradient id="SVGID_1_" gradientUnits="userSpaceOnUse" x1="16.3084" y1="10.2419" x2="16.3084" y2="22.0917">
	<stop  offset="0" style="stop-color:#FF8787"/>
	<stop  offset="1" style="stop-color:#FF5252"/>
</linearGradient>
<circle fill="url(#SVGID_1_)" cx="16.308" cy="16.308" r="6"/>
<path fill="#ff5a5a" d="M16.309,22.629c-3.584,0-6.5-2.916-6.5-6.5s2.916-6.5,6.5-6.5s6.5,2.916,6.5,6.5
	S19.893,22.629,16.309,22.629z M16.309,10.629c-3.033,0-5.5,2.467-5.5,5.5c0,3.032,2.467,5.5,5.5,5.5c3.032,0,5.5-2.468,5.5-5.5
	C21.809,13.096,19.341,10.629,16.309,10.629z"/>
</svg>
